# xmcd
#
# Track frame offsets: 
#        150
#        33807
#        57893
#        75598
#        97705
#        118823
#        139272
#        156914
#        182351
#
# Disc length: 2730 seconds
#
# Revision: 0
# Processed by: cddbd v1.5.2PL0 Copyright (c) Steve Scherf et al.
# Submitted via: ExactAudioCopy v1.3
#
DISCID=650aa809
DTITLE=John Verity Band - Routes
DYEAR=2006
DGENRE=Blues Rock
TTITLE0=A Woman (Like You)
TTITLE1=Last Chance
TTITLE2=Boyz
TTITLE3=Waiting
TTITLE4=Away From You
TTITLE5=Down The Road With Me
TTITLE6=You Are The One
TTITLE7=Eyes On You
TTITLE8=Dirty Old Man
EXTD=
EXTT0=
EXTT1=
EXTT2=
EXTT3=
EXTT4=
EXTT5=
EXTT6=
EXTT7=
EXTT8=
PLAYORDER=
